HIERARCHY
ROOT Hips
{
	OFFSET 0.000000 94.000000 0.000011
	CHANNELS 6 Xposition Yposition Zposition Yrotation Xrotation Zrotation
	JOINT Spine
	{
		OFFSET 0.000000 12.994698 0.000002
		CHANNELS 6 Xposition Yposition Zposition Yrotation Xrotation Zrotation
		JOINT Spine1
		{
			OFFSET 0.000000 12.709900 0.000002
			CHANNELS 6 Xposition Yposition Zposition Yrotation Xrotation Zrotation
			JOINT Spine2
			{
				OFFSET 0.000000 12.782906 0.000002
				CHANNELS 6 Xposition Yposition Zposition Yrotation Xrotation Zrotation
				JOINT LeftShoulder
				{
					OFFSET 7.040100 10.435104 1.914701
					CHANNELS 6 Xposition Yposition Zposition Yrotation Xrotation Zrotation
					JOINT LeftArm
					{
						OFFSET 0.000000 13.459900 0.000002
						CHANNELS 6 Xposition Yposition Zposition Yrotation Xrotation Zrotation
						JOINT LeftForeArm
						{
							OFFSET -0.000100 26.100006 0.000003
							CHANNELS 6 Xposition Yposition Zposition Yrotation Xrotation Zrotation
							JOINT LeftHand
							{
								OFFSET 0.000000 28.900101 0.000003
								CHANNELS 6 Xposition Yposition Zposition Yrotation Xrotation Zrotation
								JOINT LeftHandIndex1
								{
									OFFSET -2.561200 8.073898 0.103001
									CHANNELS 6 Xposition Yposition Zposition Yrotation Xrotation Zrotation
									JOINT LeftHandIndex2
									{
										OFFSET 0.000000 4.580505 0.000000
										CHANNELS 6 Xposition Yposition Zposition Yrotation Xrotation Zrotation
										JOINT LeftHandIndex3
										{
											OFFSET 0.000000 2.817993 0.000000
											CHANNELS 6 Xposition Yposition Zposition Yrotation Xrotation Zrotation
											End Site
											{
												OFFSET 0.000000 1.356598 0.000000
											}
										}
									}
								}
								JOINT LeftHandMiddle1
								{
									OFFSET -0.545000 8.136505 0.103001
									CHANNELS 6 Xposition Yposition Zposition Yrotation Xrotation Zrotation
									JOINT LeftHandMiddle2
									{
										OFFSET 0.000000 4.702408 0.000000
										CHANNELS 6 Xposition Yposition Zposition Yrotation Xrotation Zrotation
										JOINT LeftHandMiddle3
										{
											OFFSET 0.000000 3.101593 0.000000
											CHANNELS 6 Xposition Yposition Zposition Yrotation Xrotation Zrotation
											End Site
											{
												OFFSET 0.000000 1.499100 0.000000
											}
										}
									}
								}
								JOINT LeftHandPinky1
								{
									OFFSET 3.136800 7.018097 0.103101
									CHANNELS 6 Xposition Yposition Zposition Yrotation Xrotation Zrotation
									JOINT LeftHandPinky2
									{
										OFFSET 0.000000 3.554001 0.000000
										CHANNELS 6 Xposition Yposition Zposition Yrotation Xrotation Zrotation
										JOINT LeftHandPinky3
										{
											OFFSET 0.000000 2.233902 0.000000
											CHANNELS 6 Xposition Yposition Zposition Yrotation Xrotation Zrotation
											End Site
											{
												OFFSET 0.000000 1.120499 0.000000
											}
										}
									}
								}
								JOINT LeftHandRing1
								{
									OFFSET 1.440500 7.806702 0.103101
									CHANNELS 6 Xposition Yposition Zposition Yrotation Xrotation Zrotation
									JOINT LeftHandRing2
									{
										OFFSET 0.000000 4.392197 0.000000
										CHANNELS 6 Xposition Yposition Zposition Yrotation Xrotation Zrotation
										JOINT LeftHandRing3
										{
											OFFSET 0.000000 2.832703 0.000000
											CHANNELS 6 Xposition Yposition Zposition Yrotation Xrotation Zrotation
											End Site
											{
												OFFSET 0.000000 1.350006 0.000000
											}
										}
									}
								}
								JOINT LeftHandThumb1
								{
									OFFSET -2.786300 2.078995 0.094600
									CHANNELS 6 Xposition Yposition Zposition Yrotation Xrotation Zrotation
									JOINT LeftHandThumb2
									{
										OFFSET 0.000000 3.961899 0.000000
										CHANNELS 6 Xposition Yposition Zposition Yrotation Xrotation Zrotation
										JOINT LeftHandThumb3
										{
											OFFSET 0.000000 3.007095 0.000000
											CHANNELS 6 Xposition Yposition Zposition Yrotation Xrotation Zrotation
											End Site
											{
												OFFSET 0.000000 1.729507 0.000000
											}
										}
									}
								}
							}
						}
					}
				}
				JOINT Neck
				{
					OFFSET 0.000000 18.209305 0.000002
					CHANNELS 6 Xposition Yposition Zposition Yrotation Xrotation Zrotation
					JOINT Head
					{
						OFFSET 0.000000 11.033493 0.000001
						CHANNELS 6 Xposition Yposition Zposition Yrotation Xrotation Zrotation
						End Site
						{
							OFFSET 0.000000 8.022003 0.000001
						}
					}
				}
				JOINT RightShoulder
				{
					OFFSET -7.040100 10.435104 1.914701
					CHANNELS 6 Xposition Yposition Zposition Yrotation Xrotation Zrotation
					JOINT RightArm
					{
						OFFSET 0.000000 13.459900 0.000002
						CHANNELS 6 Xposition Yposition Zposition Yrotation Xrotation Zrotation
						JOINT RightForeArm
						{
							OFFSET 0.000000 26.100098 0.000003
							CHANNELS 6 Xposition Yposition Zposition Yrotation Xrotation Zrotation
							JOINT RightHand
							{
								OFFSET -0.000100 28.900101 -0.000097
								CHANNELS 6 Xposition Yposition Zposition Yrotation Xrotation Zrotation
								JOINT RightHandIndex1
								{
									OFFSET 2.561100 8.074005 0.103001
									CHANNELS 6 Xposition Yposition Zposition Yrotation Xrotation Zrotation
									JOINT RightHandIndex2
									{
										OFFSET 0.000000 4.580505 -0.000099
										CHANNELS 6 Xposition Yposition Zposition Yrotation Xrotation Zrotation
										JOINT RightHandIndex3
										{
											OFFSET 0.000000 2.817993 0.000000
											CHANNELS 6 Xposition Yposition Zposition Yrotation Xrotation Zrotation
											End Site
											{
												OFFSET 0.000000 1.356598 0.000000
											}
										}
									}
								}
								JOINT RightHandMiddle1
								{
									OFFSET 0.545000 8.136597 0.103001
									CHANNELS 6 Xposition Yposition Zposition Yrotation Xrotation Zrotation
									JOINT RightHandMiddle2
									{
										OFFSET 0.000000 4.702408 -0.000099
										CHANNELS 6 Xposition Yposition Zposition Yrotation Xrotation Zrotation
										JOINT RightHandMiddle3
										{
											OFFSET 0.000000 3.101593 0.000000
											CHANNELS 6 Xposition Yposition Zposition Yrotation Xrotation Zrotation
											End Site
											{
												OFFSET 0.000000 1.499100 0.000000
											}
										}
									}
								}
								JOINT RightHandPinky1
								{
									OFFSET -3.136800 7.018097 0.103001
									CHANNELS 6 Xposition Yposition Zposition Yrotation Xrotation Zrotation
									JOINT RightHandPinky2
									{
										OFFSET 0.000000 3.554092 -0.000099
										CHANNELS 6 Xposition Yposition Zposition Yrotation Xrotation Zrotation
										JOINT RightHandPinky3
										{
											OFFSET 0.000000 2.233994 0.000000
											CHANNELS 6 Xposition Yposition Zposition Yrotation Xrotation Zrotation
											End Site
											{
												OFFSET 0.000000 1.120499 0.000000
											}
										}
									}
								}
								JOINT RightHandRing1
								{
									OFFSET -1.440500 7.806793 0.103001
									CHANNELS 6 Xposition Yposition Zposition Yrotation Xrotation Zrotation
									JOINT RightHandRing2
									{
										OFFSET 0.000000 4.392303 -0.000099
										CHANNELS 6 Xposition Yposition Zposition Yrotation Xrotation Zrotation
										JOINT RightHandRing3
										{
											OFFSET 0.000000 2.832703 0.000000
											CHANNELS 6 Xposition Yposition Zposition Yrotation Xrotation Zrotation
											End Site
											{
												OFFSET 0.000000 1.350006 0.000000
											}
										}
									}
								}
								JOINT RightHandThumb1
								{
									OFFSET 2.786300 2.079102 0.094500
									CHANNELS 6 Xposition Yposition Zposition Yrotation Xrotation Zrotation
									JOINT RightHandThumb2
									{
										OFFSET 0.000000 3.962006 -0.000099
										CHANNELS 6 Xposition Yposition Zposition Yrotation Xrotation Zrotation
										JOINT RightHandThumb3
										{
											OFFSET 0.000000 3.007202 -0.000099
											CHANNELS 6 Xposition Yposition Zposition Yrotation Xrotation Zrotation
											End Site
											{
												OFFSET 0.000000 1.729507 0.000000
											}
										}
									}
								}
							}
						}
					}
				}
			}
		}
	}
	JOINT LeftUpLeg
	{
		OFFSET 8.100000 0.000000 0.000000
		CHANNELS 6 Xposition Yposition Zposition Yrotation Xrotation Zrotation
		JOINT LeftLeg
		{
			OFFSET 0.000000 43.199997 0.000005
			CHANNELS 6 Xposition Yposition Zposition Yrotation Xrotation Zrotation
			JOINT LeftFoot
			{
				OFFSET 0.000000 43.300003 0.000005
				CHANNELS 6 Xposition Yposition Zposition Yrotation Xrotation Zrotation
				JOINT LeftToeBase
				{
					OFFSET 0.000000 14.572693 0.000002
					CHANNELS 6 Xposition Yposition Zposition Yrotation Xrotation Zrotation
					End Site
					{
						OFFSET 0.000000 3.500000 0.000000
					}
				}
			}
		}
	}
	JOINT RightUpLeg
	{
		OFFSET -8.100000 0.000000 0.000000
		CHANNELS 6 Xposition Yposition Zposition Yrotation Xrotation Zrotation
		JOINT RightLeg
		{
			OFFSET 0.000000 43.199997 0.000005
			CHANNELS 6 Xposition Yposition Zposition Yrotation Xrotation Zrotation
			JOINT RightFoot
			{
				OFFSET 0.000000 43.300003 0.000005
				CHANNELS 6 Xposition Yposition Zposition Yrotation Xrotation Zrotation
				JOINT RightToeBase
				{
					OFFSET 0.000000 14.572693 0.000002
					CHANNELS 6 Xposition Yposition Zposition Yrotation Xrotation Zrotation
					End Site
					{
						OFFSET 0.000000 3.500000 0.000000
					}
				}
			}
		}
	}
}
MOTION
Frames: 4
Frame Time: 0.010000
5.852700 95.809196 0.682411 9.330882 -4.409804 1.158115 -0.000001 12.994698 0.000001 -0.000001 -0.000000 0.000000 -0.000000 12.709908 0.000001 -0.000001 -0.000000 0.000000 -0.000000 12.782906 0.000002 -23.547699 -0.000001 -0.000002 7.040101 10.435103 1.914702 0.000000 89.999989 -90.000003 -0.000002 13.459903 0.000006 -23.499186 75.911597 -29.610888 -0.000100 26.100019 -0.000002 -0.030600 3.940900 -0.936999 0.000000 28.900085 0.000002 0.000001 -0.000001 -0.000000 -2.561198 8.073894 0.103003 4.455598 17.500797 8.688301 0.000002 4.580529 -0.000003 0.000001 17.999992 -0.000000 0.000002 2.817986 -0.000001 -0.000000 17.998693 -0.000800 -0.545001 8.136542 0.103009 -0.000001 17.999592 5.400100 -0.000000 4.702382 0.000011 0.000000 18.000098 0.000000 -0.000001 3.101597 0.000004 0.000100 17.999999 0.000100 3.136801 7.018136 0.103108 -22.769095 18.002391 -13.293800 0.000001 3.554005 -0.000009 -0.000300 17.999391 0.000400 -0.000001 2.233902 -0.000019 -0.000100 18.000388 -0.000600 1.440501 7.806728 0.103092 -11.405897 19.284896 -1.936601 0.000002 4.392205 0.000000 -0.000000 17.999989 -0.000000 0.000001 2.832730 -0.000009 -0.000000 17.998996 -0.000100 -2.786312 2.079031 0.094592 59.081293 -12.433402 28.170798 -0.000001 3.961917 0.000002 -0.354599 6.351299 -6.389998 0.000004 3.007089 0.000004 -0.355003 6.350899 -6.390100 0.000000 18.209305 0.000004 0.000000 -0.000000 -0.000000 -0.000001 11.033469 -0.000000 16.368301 -19.811203 -5.786398 -7.040099 10.435119 1.914703 0.000000 89.999989 89.999886 0.000002 13.459896 0.000028 94.037696 75.661591 86.095402 0.000002 26.100071 0.000007 1.146698 -5.350997 -21.131092 -0.000099 28.900101 -0.000096 -0.000001 -0.000000 -0.000003 2.561105 8.074017 0.103007 -4.455799 17.500698 -8.688096 -0.000002 4.580499 -0.000102 0.000000 17.999990 -0.000001 -0.000010 2.817992 -0.000001 -0.000001 17.999387 0.000203 0.545004 8.136604 0.103008 -0.000097 17.999893 -5.399894 -0.000005 4.702417 -0.000088 0.000001 17.999990 0.000001 -0.000008 3.101633 0.000013 0.000002 17.999989 -0.000002 -3.136797 7.018103 0.103000 22.769296 18.002596 13.293904 0.000003 3.554121 -0.000096 0.000001 17.998901 0.000101 -0.000005 2.234023 -0.000005 0.000004 17.999292 0.000198 -1.440500 7.806788 0.102995 11.405696 19.284901 1.936702 0.000005 4.392312 -0.000102 0.000002 17.999992 0.000003 0.000006 2.832723 -0.000002 0.000002 17.999193 0.000002 2.786299 2.079098 0.094486 -59.081293 -12.433295 -28.170400 0.000003 3.962020 -0.000106 0.354797 6.350598 6.389694 0.000000 3.007199 -0.000101 0.354896 6.350794 6.390194 8.100000 -0.000002 -0.000001 7.501099 5.732614 -179.423100 0.000002 43.200012 0.000005 0.009303 0.000100 0.000000 0.000001 43.299999 0.000008 -0.758995 61.130992 -0.896700 0.000001 14.572693 -0.000004 0.000000 31.321895 0.316602 -8.100001 0.000006 -0.000001 -12.500505 6.130411 172.471087 -0.000002 43.199997 0.000005 -0.006800 0.000100 0.000100 0.000001 43.299995 0.000026 0.414899 63.380194 0.473300 0.000001 14.572711 0.000009 -0.000000 28.687993 0.002100 
5.799300 95.794701 0.910711 9.037475 -4.408184 1.190359 0.000001 12.994698 0.000001 -0.000000 0.000001 0.000000 0.000000 12.709900 0.000000 -0.000000 0.000001 0.000000 -0.000000 12.782890 0.000003 -23.575204 -0.000001 -0.000003 7.040100 10.435088 1.914701 0.000000 89.999989 -90.000003 0.000002 13.459898 0.000016 -23.848072 75.868703 -30.072377 -0.000099 26.100035 -0.000000 -0.032601 4.106098 -0.958000 -0.000000 28.900085 -0.000004 -0.000000 -0.000000 -0.000000 -2.561198 8.073894 0.103003 4.455598 17.500799 8.688300 0.000000 4.580513 -0.000003 -0.000000 17.999992 -0.000001 0.000001 2.818016 -0.000016 0.000001 17.998689 -0.000800 -0.545002 8.136542 0.103009 -0.000000 17.999592 5.400100 0.000001 4.702397 0.000011 0.000001 18.000096 -0.000000 -0.000000 3.101612 0.000004 0.000100 17.999994 0.000100 3.136802 7.018151 0.103107 -22.769093 18.002391 -13.293798 0.000001 3.554019 0.000000 -0.000300 17.999391 0.000302 0.000002 2.233917 -0.000014 0.000001 18.000390 -0.000600 1.440500 7.806697 0.103100 -11.405898 19.284896 -1.936600 0.000001 4.392205 0.000000 0.000000 17.999990 0.000000 0.000002 2.832699 -0.000009 -0.000000 17.998995 -0.000100 -2.786300 2.079016 0.094605 59.081191 -12.433407 28.170799 -0.000002 3.961932 -0.000000 -0.354601 6.351301 -6.390000 0.000002 3.007104 -0.000002 -0.355000 6.350899 -6.390101 -0.000000 18.209305 0.000002 0.000000 -0.000000 0.000000 0.000001 11.033469 -0.000004 16.433599 -19.787101 -5.795298 -7.040099 10.435103 1.914701 0.000000 89.999989 89.999893 0.000001 13.459897 0.000024 94.123798 72.172799 85.959297 0.000007 26.100105 0.000003 0.975908 -4.331298 -22.140994 -0.000104 28.900070 -0.000093 0.000003 -0.000002 -0.000001 2.561107 8.074017 0.103007 -4.455799 17.500697 -8.688097 -0.000005 4.580507 -0.000108 -0.000001 17.999989 -0.000098 -0.000006 2.817977 -0.000008 -0.000002 17.999393 0.000198 0.545007 8.136620 0.103000 -0.000100 17.999895 -5.399898 0.000003 4.702417 -0.000087 0.000000 17.999989 -0.000002 0.000004 3.101618 0.000013 0.000000 17.999989 -0.000004 -3.136795 7.018118 0.103007 22.769298 18.002594 13.293901 0.000002 3.554106 -0.000096 -0.000001 17.998899 0.000099 0.000001 2.234011 0.000008 -0.000100 17.999195 0.000201 -1.440493 7.806788 0.103002 11.405699 19.284899 1.936702 -0.000003 4.392327 -0.000095 0.000001 17.999992 0.000003 -0.000002 2.832707 -0.000002 -0.000000 17.999195 0.000003 2.786306 2.079082 0.094490 -59.081293 -12.433299 -28.170400 0.000003 3.962019 -0.000089 0.354797 6.350600 6.389697 0.000004 3.007215 -0.000105 0.354901 6.350795 6.390193 8.100001 -0.000004 -0.000002 7.723999 5.875415 -179.354798 -0.000001 43.199997 0.000005 0.009300 0.000100 -0.000000 0.000000 43.300003 0.000028 -0.845898 61.292492 -0.998900 -0.000001 14.572691 -0.000000 -0.000000 31.097889 0.311802 -8.100001 0.000004 -0.000001 -12.438101 6.260411 172.480486 0.000000 43.199997 0.000005 -0.006700 0.000100 0.000100 0.000001 43.300018 0.000022 0.450300 63.347894 0.514398 0.000001 14.572715 0.000008 0.000001 29.057892 0.002200 
5.738600 95.780701 1.137211 8.936405 -4.409413 1.214750 0.000001 12.994698 0.000002 0.000001 0.000000 0.000000 0.000000 12.709915 0.000001 0.000001 0.000000 0.000000 0.000000 12.782906 0.000002 -23.611300 -0.000000 -0.000002 7.040100 10.435119 1.914701 0.000000 89.999989 -90.000003 0.000000 13.459900 0.000008 -24.267570 75.817900 -30.627880 -0.000100 26.099998 0.000002 -0.035000 4.291100 -0.981799 -0.000001 28.900085 0.000005 0.000001 -0.000000 -0.000000 -2.561201 8.073909 0.102995 4.455597 17.500799 8.688300 0.000002 4.580529 0.000004 0.000001 17.999992 0.000001 -0.000000 2.818001 -0.000009 0.000001 17.998687 -0.000800 -0.545003 8.136542 0.103009 -0.000001 17.999592 5.400100 -0.000001 4.702397 0.000011 0.000001 18.000096 -0.000000 -0.000000 3.101627 0.000004 0.000101 17.999995 0.000100 3.136802 7.018121 0.103100 -22.769091 18.002389 -13.293801 0.000001 3.554003 -0.000008 -0.000303 17.999391 0.000300 0.000001 2.233902 -0.000014 -0.000001 18.000393 -0.000600 1.440501 7.806728 0.103092 -11.405898 19.284899 -1.936600 0.000002 4.392220 0.000000 -0.000000 17.999992 0.000000 0.000001 2.832715 -0.000009 -0.000000 17.998993 -0.000100 -2.786308 2.079016 0.094594 59.081191 -12.433403 28.170798 0.000001 3.961902 -0.000002 -0.354599 6.351297 -6.390000 0.000002 3.007104 0.000006 -0.355002 6.350899 -6.390100 0.000000 18.209320 0.000001 0.000002 0.000001 -0.000000 0.000001 11.033484 -0.000000 16.516603 -19.754399 -5.808398 -7.040099 10.435120 1.914701 0.000000 89.999989 89.999886 0.000000 13.459893 0.000020 94.417298 67.676390 85.974098 -0.000004 26.100094 0.000004 0.685811 -2.881399 -23.296995 -0.000106 28.900101 -0.000098 -0.000001 0.000001 0.000000 2.561094 8.074032 0.103008 -4.455797 17.500691 -8.688099 -0.000007 4.580499 -0.000102 -0.000003 17.999990 -0.000001 -0.000004 2.817977 -0.000001 0.000003 17.999393 0.000199 0.544991 8.136604 0.103001 -0.000102 17.999891 -5.399899 -0.000000 4.702432 -0.000087 -0.000004 17.999989 0.000002 0.000010 3.101602 0.000013 -0.000001 17.999989 -0.000001 -3.136814 7.018118 0.103000 22.769298 18.002598 13.293902 -0.000004 3.554091 -0.000081 0.000002 17.998899 0.000099 0.000001 2.234023 0.000009 -0.000002 17.999295 0.000200 -1.440512 7.806804 0.103002 11.405700 19.284901 1.936697 -0.000001 4.392297 -0.000103 0.000003 17.999994 -0.000001 0.000003 2.832738 -0.000009 0.000002 17.999196 0.000001 2.786291 2.079098 0.094490 -59.081293 -12.433308 -28.170398 0.000008 3.962020 -0.000101 0.354797 6.350598 6.389697 -0.000003 3.007214 -0.000096 0.354901 6.350797 6.390199 8.100000 -0.000004 0.000001 7.953701 6.019715 -179.283696 -0.000002 43.199997 0.000005 0.009101 0.000100 -0.000000 -0.000000 43.300014 0.000025 -0.932600 61.447093 -1.100700 -0.000000 14.572692 -0.000002 -0.000000 30.873288 0.307301 -8.100001 -0.000008 -0.000000 -12.390003 6.389510 172.490185 -0.000001 43.199997 0.000005 -0.006700 0.000100 0.000100 -0.000001 43.299992 0.000015 0.491299 63.319494 0.561800 -0.000001 14.572719 0.000007 -0.000000 29.411898 0.002300 
5.665999 95.769203 1.357111 8.835134 -4.410625 1.239165 -0.000000 12.994705 0.000002 -0.000000 0.000000 -0.000000 0.000000 12.709900 0.000002 -0.000000 0.000000 -0.000000 0.000001 12.782906 0.000002 -23.647100 -0.000000 -0.000003 7.040100 10.435103 1.914699 0.000000 89.999989 -90.000003 0.000000 13.459898 0.000026 -24.682775 75.766401 -31.178881 -0.000099 26.099998 0.000008 -0.037400 4.476498 -1.006100 0.000001 28.900101 -0.000003 0.000001 -0.000000 0.000000 -2.561196 8.073909 0.102995 4.455600 17.500799 8.688299 0.000000 4.580498 -0.000003 -0.000000 17.999992 -0.000001 0.000000 2.818016 -0.000008 0.000001 17.998691 -0.000800 -0.545002 8.136542 0.103009 -0.000000 17.999594 5.400100 -0.000000 4.702397 0.000019 0.000000 18.000096 -0.000000 0.000000 3.101597 -0.000003 0.000100 17.999997 0.000100 3.136801 7.018136 0.103100 -22.769095 18.002391 -13.293800 -0.000000 3.554020 -0.000009 -0.000299 17.999389 0.000401 0.000000 2.233932 -0.000004 -0.000099 18.000395 -0.000601 1.440500 7.806743 0.103092 -11.405897 19.284896 -1.936601 0.000000 4.392205 0.000000 -0.000000 17.999990 -0.000000 0.000001 2.832715 -0.000016 -0.000001 17.998996 -0.000100 -2.786304 2.079016 0.094588 59.081293 -12.433403 28.170798 0.000001 3.961932 0.000004 -0.354599 6.351298 -6.389999 0.000004 3.007074 -0.000000 -0.355003 6.350899 -6.390100 0.000001 18.209320 0.000001 -0.000000 -0.000000 -0.000000 -0.000001 11.033515 -0.000000 16.599301 -19.721703 -5.821498 -7.040099 10.435104 1.914700 0.000000 89.999989 89.999893 0.000001 13.459895 -0.000005 94.755501 62.902190 86.002600 0.000008 26.100107 0.000004 0.295102 -1.180299 -24.376296 -0.000119 28.900085 -0.000095 0.000002 -0.000001 -0.000003 2.561100 8.074032 0.103007 -4.455793 17.500698 -8.688103 -0.000006 4.580514 -0.000102 0.000001 17.999989 -0.000000 -0.000006 2.818007 -0.000008 -0.000002 17.999393 0.000201 0.544997 8.136605 0.103012 0.000005 17.999891 -5.399901 0.000003 4.702432 -0.000095 0.000000 17.999989 0.000002 0.000001 3.101617 0.000013 0.000001 17.999990 0.000001 -3.136806 7.018118 0.103007 22.769303 18.002598 13.293903 -0.000004 3.554106 -0.000096 0.000002 17.998901 0.000098 -0.000001 2.234022 0.000009 -0.000000 17.999292 0.000204 -1.440501 7.806804 0.103010 11.405702 19.284901 1.936698 0.000001 4.392327 -0.000087 -0.000001 17.999994 0.000002 -0.000002 2.832723 -0.000009 0.000002 17.999196 0.000002 2.786303 2.079092 0.094500 -59.081293 -12.433304 -28.170308 0.000001 3.962005 -0.000104 0.354799 6.350598 6.389692 0.000002 3.007200 -0.000099 0.354895 6.350794 6.390192 8.100000 0.000013 0.000001 8.181998 6.156915 -179.205900 0.000001 43.199997 0.000005 0.008999 0.000000 -0.000000 0.000001 43.299988 0.000026 -1.031396 61.594400 -1.216499 -0.000000 14.572718 0.000002 -0.000000 30.630485 0.301602 -8.100000 0.000000 0.000001 -12.344402 6.514012 172.507889 0.000000 43.199997 0.000005 -0.006600 -0.000000 0.000100 0.000000 43.300014 0.000028 0.516400 63.286497 0.590800 0.000001 14.572689 0.000013 -0.000001 29.759496 0.002301 
